<svg id="visual" viewBox="0 0 1080 1920" width="1080" height="1920" xmlns="http://www.w3.org/2000/svg" xmlns:xlink="http://www.w3.org/1999/xlink" version="1.1"><g><g transform="translate(992 582)"><path d="M350.3 -127.5C398 33.1 342.2 213.7 214.1 310.6C86 407.4 -114.6 420.5 -242.7 328.7C-370.9 236.8 -426.8 40 -374.3 -127.1C-321.8 -294.3 -160.9 -431.8 -4.8 -430.2C151.3 -428.7 302.5 -288.1 350.3 -127.5Z" stroke="#ffd494" fill="none" stroke-width="20"></path></g><g transform="translate(553 1824)"><path d="M209.9 -65.8C242 30.5 217.2 147.7 141.5 205.2C65.8 262.7 -60.9 260.4 -146.1 199C-231.2 137.6 -274.9 17.1 -243.6 -78.2C-212.4 -173.4 -106.2 -243.3 -8.6 -240.5C88.9 -237.7 177.8 -162.2 209.9 -65.8Z" stroke="#ffd494" fill="none" stroke-width="20"></path></g></g></svg>